<?xml version="1.0" encoding="UTF-8"?> <!-- Generator: Adobe Illustrator 22.1.0, SVG Export Plug-In . SVG Version: 6.00 Build 0) --> <svg xmlns="http://www.w3.org/2000/svg" xmlns:xlink="http://www.w3.org/1999/xlink" id="Layer_1" x="0px" y="0px" viewBox="0 0 183.9 89" style="enable-background:new 0 0 183.9 89;" xml:space="preserve"> <style type="text/css"> .st0{fill:#FFFFFF;} </style> <g> <path class="st0" d="M181.6,31.1c-1.5-2.5-4-4.6-7.3-6.3c-3.3-1.7-8.9-3.4-16.6-5c-3.1-0.6-5.1-1.4-5.9-2.1 c-0.9-0.7-1.3-1.5-1.3-2.5c0-1.2,0.5-2.3,1.6-3.2c1-0.9,2.6-1.3,4.6-1.3c2.5,0,4.4,0.6,5.9,1.8c1.4,1.2,2.3,3,2.8,5.6l16.6-1 c-0.7-5.9-3-10.2-6.8-13c-3.8-2.7-9.4-4.1-16.7-4.1c-4,0-7.4,0.3-10.3,1h-14l-12,31.9L111,1H94.3L82.7,36.2L69.4,1H50.2L46.8,10 c-0.8-1.7-1.8-3.1-3.1-4.4c-3.2-3-8-4.6-14.4-4.6H0v57.1h17.7V36.9h9.7c3.8,0,7-0.5,9.8-1.4l-8.5,22.6l27.4,0l4-13.9 c0.3-1.2,2-4.8,4.3-6.4c3.4-2.5,6.1-6.8,2.9-9.4c-1.3-1.1-2.6,0.5-1.5-1.5c1.6-3,0-5.9-3-5.2c0,0,0,0-0.1,0 c-1.7,0.2-2.2-0.4-2.8-1.1c-0.3-0.4-1.6-1-1.5-0.7c0.1,0.2,0.2,0.4,0.3,0.5c0,0,0,0.1,0.1,0.1c0.1,0.2,0.3,0.4,0.4,0.6 c1.8,3-0.5,4.2-0.5,4.2C57,25.8,56.4,24,55,22.2c0,0,0,0-0.1-0.1c0,0,0,0,0,0c0,0-0.1-0.1-0.1-0.1c0,0,0,0,0,0c0,0-0.1-0.1-0.1-0.1 c0,0,0,0,0,0c-0.3-0.2-0.6-0.5-1.1-0.3c0,0-0.1,0-0.1,0.1c0,0,0,0,0,0c0,0,0,0-0.1,0.1c0,0,0,0,0,0c0,0,0,0,0,0.1c0,0,0,0,0,0.1 c0,0,0,0.1,0,0.1c0,0,0,0,0,0.1c0,0,0,0.1,0,0.1c0,0,0,0.1,0,0.1c0,0,0,0.1,0,0.1c0,0,0,0.1,0,0.1c0,0,0,0,0,0c0,0,0,0,0,0 c0,0.1,0,0.1,0,0.2c0.7,1.1,1.3,2.2,1.8,3c1.6,2.5,0.2,3.8,0.2,3.8c-1.7,1.1-3-0.5-4.6-2.9l0,0c0,0-0.4,0.8,0,2.2 c1.8,1.2,1.8,1.2,1.8,1.2s6.5,3.3,4.8,5c-1.7,1.7-8-1.9-8-1.9s-0.5-0.1-0.9,0.5c-0.3,0.4-0.7,1.4-0.7,1.4s0,0,0,0 c-0.1-0.2-1.4-2.3,0-5.4c0,0,0.7-1.2,1.9-1.1c0,0,0,0,0,0c0,0-2.8-6.1-1.6-7.4c0.3-0.6,0.8-1,0.8-1c1.4-0.9,2.6,0,3.6,1.4L51.9,19 l0,0c0-0.1,0-0.2,0-0.2c-0.1-1.2,0.9-2.8,2.5-2.7c0.1,0,0.2,0,0.3,0c0,0,0.1,0,0.1,0c0.1,0,0.2,0,0.2,0.1c0,0,0,0,0.1,0 c0.1,0,0.2,0.1,0.3,0.1c0,0,0.1,0,0.1,0c0.1,0,0.1,0.1,0.2,0.1c0,0,0.1,0,0.1,0c0.1,0.1,0.2,0.1,0.2,0.2c0,0,0.1,0,0.1,0.1 c0.1,0,0.1,0.1,0.2,0.1c0,0,0.1,0.1,0.1,0.1c0.1,0.1,0.1,0.1,0.2,0.2c0,0,0.1,0.1,0.1,0.1c0.1,0.1,0.1,0.1,0.2,0.2 c0,0,0.1,0.1,0.1,0.1c0,0.1,0.1,0.1,0.1,0.2c0.1,0.1,0.1,0.1,0.2,0.2c0.1,0.1,0.1,0.1,0.2,0.2c0,0.1,0.1,0.1,0.1,0.2 c0,0.1,0.1,0.1,0.1,0.2c0,0.1,0.1,0.1,0.1,0.2c0,0,0,0,0,0v-0.8c0-0.4,0.1-1.6,1.9-2.1c1.7-0.5,4,1.5,4.7,3.3 c0.1-1.1,1.3-1.4,1.3-1.4s2.9,5.3,4.9,6.8c0.5,0.4,0.5,2.8,0.8,4.8c0.4,2.3,0.8,4.1,0.8,4.1c0,2.9-0.3,5.1-1.5,8.2 c-1.1,2.7,3.8,14.7,4.6,16.6h15.6l0,0h1.8l10-36l10,36H130l4-11c1.1,2.4,2.5,4.5,4.4,6.3c3.7,3.7,10.5,5.6,20.2,5.6 c5.5,0,10.1-0.8,13.8-2.4c3.6-1.6,6.5-3.9,8.5-7c2-3.1,3-6.5,3-10.1C183.9,36.4,183.1,33.6,181.6,31.1z M29.2,23.6 c-1.4,1.2-3.8,1.8-7.2,1.8h-4.3V12.6h5c3.3,0,5.5,0.6,6.7,1.9c1.2,1.2,1.8,2.8,1.8,4.6C31.3,20.9,30.6,22.4,29.2,23.6z M164.7,46.1 c-1.4,1.2-3.3,1.8-5.8,1.8c-3.4,0-6-1.2-7.8-3.5c-1.1-1.4-1.9-3.5-2.2-6.2L137,38.9l3.6-10c3.4,2.3,8.4,4.3,15.1,5.8 c4.7,1,7.7,2.1,9,3.3c1.3,1.2,1.9,2.5,1.9,4C166.7,43.5,166,44.9,164.7,46.1z"></path> <g> <path class="st0" d="M0,84.6V62.5h9.8c2,0,3.5,0.2,4.5,0.6c1,0.4,1.8,1.1,2.5,2.1c0.6,1,0.9,2.1,0.9,3.3c0,1.6-0.5,2.9-1.5,4 c-1,1.1-2.6,1.8-4.7,2c0.8,0.4,1.4,0.7,1.8,1.1c0.9,0.8,1.7,1.8,2.4,2.9l3.8,6h-3.7L12.9,80c-0.9-1.3-1.6-2.3-2.1-3 c-0.6-0.7-1-1.2-1.5-1.5c-0.4-0.3-0.9-0.5-1.3-0.6c-0.3-0.1-0.9-0.1-1.6-0.1H2.9v9.8H0z M2.9,72.3h6.3c1.3,0,2.4-0.1,3.1-0.4 c0.8-0.3,1.3-0.7,1.7-1.3c0.4-0.6,0.6-1.3,0.6-2c0-1-0.4-1.9-1.1-2.6c-0.8-0.7-2-1-3.6-1h-7V72.3z"></path> <path class="st0" d="M36.4,79.5l2.8,0.3c-0.4,1.6-1.3,2.9-2.5,3.8c-1.2,0.9-2.7,1.4-4.6,1.4c-2.3,0-4.2-0.7-5.6-2.2 c-1.4-1.4-2.1-3.5-2.1-6.1c0-2.7,0.7-4.8,2.1-6.3c1.4-1.5,3.2-2.2,5.4-2.2c2.1,0,3.9,0.7,5.2,2.2c1.4,1.5,2,3.5,2,6.1 c0,0.2,0,0.4,0,0.7H27.4c0.1,1.8,0.6,3.1,1.5,4c0.9,0.9,2,1.4,3.3,1.4c1,0,1.8-0.3,2.5-0.8C35.5,81.4,36,80.6,36.4,79.5z M27.5,75.1h8.9c-0.1-1.3-0.5-2.4-1-3c-0.9-1-2-1.6-3.4-1.6c-1.2,0-2.3,0.4-3.1,1.3C28.1,72.6,27.6,73.7,27.5,75.1z"></path> <path class="st0" d="M45.1,79.8l2.7-0.4c0.2,1.1,0.6,1.9,1.3,2.5c0.7,0.6,1.7,0.9,2.9,0.9c1.2,0,2.2-0.3,2.8-0.8 c0.6-0.5,0.9-1.1,0.9-1.8c0-0.6-0.3-1.1-0.8-1.4c-0.4-0.2-1.3-0.5-2.8-0.9c-2-0.5-3.4-0.9-4.1-1.3c-0.8-0.4-1.4-0.9-1.7-1.5 c-0.4-0.6-0.6-1.4-0.6-2.1c0-0.7,0.2-1.4,0.5-2c0.3-0.6,0.8-1.1,1.3-1.5c0.4-0.3,1-0.6,1.7-0.8c0.7-0.2,1.5-0.3,2.3-0.3 c1.3,0,2.4,0.2,3.3,0.5c0.9,0.4,1.7,0.9,2.1,1.5c0.5,0.6,0.8,1.4,0.9,2.5l-2.7,0.4c-0.1-0.8-0.5-1.5-1-1.9 c-0.6-0.5-1.4-0.7-2.4-0.7c-1.2,0-2.1,0.2-2.7,0.6c-0.5,0.4-0.8,0.9-0.8,1.4c0,0.4,0.1,0.7,0.3,0.9c0.2,0.3,0.6,0.5,1,0.7 c0.3,0.1,1.1,0.3,2.4,0.7c1.9,0.5,3.3,0.9,4,1.3c0.8,0.3,1.4,0.8,1.8,1.4c0.4,0.6,0.6,1.4,0.6,2.3c0,0.9-0.3,1.8-0.8,2.6 c-0.5,0.8-1.3,1.4-2.3,1.9c-1,0.4-2.1,0.7-3.4,0.7c-2.1,0-3.7-0.4-4.8-1.3C46.1,82.8,45.4,81.5,45.1,79.8z"></path> <path class="st0" d="M75.7,78.7l2.7,0.3c-0.3,1.8-1,3.3-2.2,4.3c-1.2,1-2.7,1.6-4.4,1.6c-2.2,0-4-0.7-5.3-2.1 c-1.3-1.4-2-3.5-2-6.2c0-1.7,0.3-3.2,0.9-4.5c0.6-1.3,1.4-2.3,2.6-2.9c1.2-0.6,2.4-1,3.8-1c1.7,0,3.2,0.4,4.3,1.3 c1.1,0.9,1.8,2.1,2.1,3.7l-2.6,0.4c-0.3-1.1-0.7-1.9-1.3-2.4c-0.6-0.5-1.4-0.8-2.3-0.8c-1.4,0-2.5,0.5-3.3,1.5 c-0.9,1-1.3,2.5-1.3,4.6c0,2.2,0.4,3.7,1.2,4.7c0.8,1,1.9,1.5,3.2,1.5c1.1,0,2-0.3,2.7-1C75,81.1,75.5,80.1,75.7,78.7z"></path> <path class="st0" d="M94.7,84.6v-2.4c-1.2,1.8-2.9,2.7-5.1,2.7c-0.9,0-1.8-0.2-2.6-0.5c-0.8-0.4-1.4-0.8-1.8-1.4 c-0.4-0.5-0.7-1.2-0.8-2c-0.1-0.5-0.2-1.4-0.2-2.5v-9.9h2.7v8.9c0,1.4,0.1,2.4,0.2,2.9c0.2,0.7,0.5,1.3,1.1,1.7 c0.6,0.4,1.2,0.6,2,0.6s1.6-0.2,2.3-0.6c0.7-0.4,1.2-1,1.5-1.7c0.3-0.7,0.4-1.8,0.4-3.1v-8.6h2.7v16H94.7z"></path> <path class="st0" d="M116,79.5l2.8,0.3c-0.4,1.6-1.3,2.9-2.5,3.8c-1.2,0.9-2.7,1.4-4.6,1.4c-2.3,0-4.2-0.7-5.6-2.2 c-1.4-1.4-2.1-3.5-2.1-6.1c0-2.7,0.7-4.8,2.1-6.3c1.4-1.5,3.2-2.2,5.4-2.2c2.1,0,3.9,0.7,5.2,2.2c1.4,1.5,2,3.5,2,6.1 c0,0.2,0,0.4,0,0.7h-11.9c0.1,1.8,0.6,3.1,1.5,4c0.9,0.9,2,1.4,3.3,1.4c1,0,1.8-0.3,2.5-0.8C115,81.4,115.5,80.6,116,79.5z M107,75.1h8.9c-0.1-1.3-0.5-2.4-1-3c-0.9-1-2-1.6-3.4-1.6c-1.2,0-2.3,0.4-3.1,1.3C107.6,72.6,107.1,73.7,107,75.1z"></path> <path class="st0" d="M124.7,84.6v-3.1h3.1v3.1c0,1.1-0.2,2.1-0.6,2.8c-0.4,0.7-1,1.2-1.9,1.6l-0.8-1.2c0.6-0.3,1-0.6,1.3-1.1 c0.3-0.5,0.4-1.2,0.5-2.1H124.7z"></path> <path class="st0" d="M137.1,84.6V62.5h2.9v22.1H137.1z"></path> <path class="st0" d="M148.4,84.6v-16h2.4v2.3c1.2-1.8,2.9-2.6,5.1-2.6c1,0,1.9,0.2,2.7,0.5c0.8,0.3,1.4,0.8,1.8,1.4 c0.4,0.6,0.7,1.2,0.8,2c0.1,0.5,0.2,1.4,0.2,2.6v9.8h-2.7v-9.7c0-1.1-0.1-1.9-0.3-2.5c-0.2-0.5-0.6-1-1.1-1.3 c-0.5-0.3-1.2-0.5-1.9-0.5c-1.2,0-2.2,0.4-3,1.1c-0.8,0.7-1.3,2.1-1.3,4.2v8.7H148.4z"></path> <path class="st0" d="M179.6,78.7l2.7,0.3c-0.3,1.8-1,3.3-2.2,4.3s-2.7,1.6-4.4,1.6c-2.2,0-4-0.7-5.3-2.1c-1.3-1.4-2-3.5-2-6.2 c0-1.7,0.3-3.2,0.9-4.5c0.6-1.3,1.4-2.3,2.6-2.9c1.2-0.6,2.4-1,3.8-1c1.7,0,3.2,0.4,4.3,1.3c1.1,0.9,1.8,2.1,2.1,3.7l-2.6,0.4 c-0.3-1.1-0.7-1.9-1.3-2.4c-0.6-0.5-1.4-0.8-2.3-0.8c-1.4,0-2.5,0.5-3.3,1.5c-0.9,1-1.3,2.5-1.3,4.6c0,2.2,0.4,3.7,1.2,4.7 c0.8,1,1.9,1.5,3.2,1.5c1.1,0,2-0.3,2.7-1C179,81.1,179.4,80.1,179.6,78.7z"></path> </g> </g> </svg> 